<svg width="20" height="20" viewBox="0 0 20 20" fill="none" xmlns="http://www.w3.org/2000/svg">
<path d="M14.7646 4.22101C15.5311 4.22101 16.1519 3.60427 16.1519 2.83644V1.38731C16.1519 0.618797 15.5318 0 14.7646 0C13.9975 0 13.378 0.618111 13.378 1.38731V2.83713C13.3787 3.60427 13.9982 4.22101 14.7646 4.22101Z" fill="#00D053"/>
<path d="M19.6936 2.89892C19.6933 2.62302 19.4695 2.39953 19.1936 2.39953H17.4005C17.1244 2.39953 16.9005 2.62339 16.9005 2.89953V3.10486C16.9005 4.26897 15.9548 5.21743 14.7886 5.21743C13.6211 5.21743 12.6774 4.26897 12.6774 3.10486V2.89953C12.6774 2.62339 12.4536 2.39953 12.1774 2.39953H7.54234C7.2662 2.39953 7.04234 2.62339 7.04234 2.89953V3.10486C7.04234 4.26897 6.09526 5.21743 4.92978 5.21743C3.76429 5.21743 2.8179 4.26966 2.8179 3.10486V2.89335C2.8179 2.61963 2.59781 2.39679 2.32411 2.39339L0.506214 2.37079C0.227663 2.36733 0 2.59218 0 2.87076V19.4999C0 19.776 0.223858 19.9999 0.5 19.9999H1.40929H18.3071L19.2152 19.9972C19.491 19.9964 19.714 19.7724 19.7137 19.4966L19.6936 2.89892ZM18.3057 18.5954H1.90929C1.63315 18.5954 1.40929 18.3715 1.40929 18.0954V7.8293C1.40929 7.55316 1.63315 7.3293 1.90929 7.3293H17.8071C18.0832 7.3293 18.3071 7.55316 18.3071 7.8293V18.594C18.3071 18.5948 18.3064 18.5954 18.3057 18.5954V18.5954Z" fill="#00D053"/>
<path d="M4.90779 4.22101C5.67425 4.22101 6.29579 3.60427 6.29579 2.83644V1.38731C6.29579 0.618111 5.67425 0 4.90779 0C4.14133 0 3.52185 0.618111 3.52185 1.38731V2.83713C3.52185 3.60427 4.14065 4.22101 4.90779 4.22101Z" fill="#00D053"/>
<path d="M9.16546 8.84106H7.14645C7.09122 8.84106 7.04645 8.88584 7.04645 8.94106V10.6998C7.04645 10.755 7.09122 10.7998 7.14645 10.7998H9.16546C9.22069 10.7998 9.26546 10.755 9.26546 10.6998V8.94106C9.26546 8.88584 9.22069 8.84106 9.16546 8.84106Z" fill="#00D053"/>
<path d="M12.7553 8.84106H10.7342C10.679 8.84106 10.6342 8.88584 10.6342 8.94106V10.6998C10.6342 10.755 10.679 10.7998 10.7342 10.7998H12.7553C12.8105 10.7998 12.8553 10.755 12.8553 10.6998V8.94106C12.8553 8.88584 12.8105 8.84106 12.7553 8.84106Z" fill="#00D053"/>
<path d="M16.0807 8.84106H14.0617C14.0065 8.84106 13.9617 8.88584 13.9617 8.94106V10.6998C13.9617 10.755 14.0065 10.7998 14.0617 10.7998H16.0807C16.136 10.7998 16.1807 10.755 16.1807 10.6998V8.94106C16.1807 8.88584 16.136 8.84106 16.0807 8.84106Z" fill="#00D053"/>
<path d="M9.16546 12.0938H7.14645C7.09122 12.0938 7.04645 12.1385 7.04645 12.1938V13.9511C7.04645 14.0063 7.09122 14.0511 7.14645 14.0511H9.16546C9.22069 14.0511 9.26546 14.0063 9.26546 13.9511V12.1938C9.26546 12.1385 9.22069 12.0938 9.16546 12.0938Z" fill="#00D053"/>
<path d="M12.7553 12.0938H10.7342C10.679 12.0938 10.6342 12.1385 10.6342 12.1938V13.9511C10.6342 14.0063 10.679 14.0511 10.7342 14.0511H12.7553C12.8105 14.0511 12.8553 14.0063 12.8553 13.9511V12.1938C12.8553 12.1385 12.8105 12.0938 12.7553 12.0938Z" fill="#00D053"/>
<path d="M16.0807 12.0938H14.0617C14.0065 12.0938 13.9617 12.1385 13.9617 12.1938V13.9511C13.9617 14.0063 14.0065 14.0511 14.0617 14.0511H16.0807C16.136 14.0511 16.1807 14.0063 16.1807 13.9511V12.1938C16.1807 12.1385 16.136 12.0938 16.0807 12.0938Z" fill="#00D053"/>
<path d="M9.16546 15.4109H7.14645C7.09122 15.4109 7.04645 15.4557 7.04645 15.5109V17.2682C7.04645 17.3235 7.09122 17.3682 7.14645 17.3682H9.16546C9.22069 17.3682 9.26546 17.3235 9.26546 17.2682V15.5109C9.26546 15.4557 9.22069 15.4109 9.16546 15.4109Z" fill="#00D053"/>
<path d="M5.6395 12.0938H3.62185C3.56662 12.0938 3.52185 12.1385 3.52185 12.1938V13.9511C3.52185 14.0063 3.56662 14.0511 3.62185 14.0511H5.6395C5.69472 14.0511 5.7395 14.0063 5.7395 13.9511V12.1938C5.7395 12.1385 5.69472 12.0938 5.6395 12.0938Z" fill="#00D053"/>
<path d="M5.6395 15.4109H3.62185C3.56662 15.4109 3.52185 15.4557 3.52185 15.5109V17.2682C3.52185 17.3235 3.56662 17.3682 3.62185 17.3682H5.6395C5.69472 17.3682 5.7395 17.3235 5.7395 17.2682V15.5109C5.7395 15.4557 5.69472 15.4109 5.6395 15.4109Z" fill="#00D053"/>
<path d="M12.7553 15.4109H10.7342C10.679 15.4109 10.6342 15.4557 10.6342 15.5109V17.2682C10.6342 17.3235 10.679 17.3682 10.7342 17.3682H12.7553C12.8105 17.3682 12.8553 17.3235 12.8553 17.2682V15.5109C12.8553 15.4557 12.8105 15.4109 12.7553 15.4109Z" fill="#00D053"/>
<path d="M16.0807 15.4109H14.0617C14.0065 15.4109 13.9617 15.4557 13.9617 15.5109V17.2682C13.9617 17.3235 14.0065 17.3682 14.0617 17.3682H16.0807C16.136 17.3682 16.1807 17.3235 16.1807 17.2682V15.5109C16.1807 15.4557 16.136 15.4109 16.0807 15.4109Z" fill="#00D053"/>
</svg>
