<svg width="20" height="20" viewBox="0 0 20 20" fill="none" xmlns="http://www.w3.org/2000/svg">
<path d="M15.205 13.2301C14.5516 12.5851 13.7359 12.5851 13.0867 13.2301C12.5914 13.7212 12.0962 14.2123 11.6092 14.7118C11.4761 14.8491 11.3637 14.8782 11.2014 14.7867C10.8809 14.6119 10.5397 14.4704 10.2317 14.2789C8.79585 13.3758 7.59309 12.2147 6.52767 10.9079C5.99912 10.2586 5.52883 9.5636 5.20005 8.78118C5.13346 8.62303 5.14595 8.51899 5.27496 8.38997C5.77022 7.91136 6.25299 7.42027 6.73992 6.92918C7.41829 6.24664 7.4183 5.44757 6.73576 4.76088C6.34871 4.36967 5.96166 3.98678 5.57461 3.59557C5.17508 3.19604 4.77971 2.79234 4.37601 2.39697C3.72261 1.76021 2.90689 1.76021 2.25765 2.40113C1.75823 2.89223 1.27962 3.3958 0.771883 3.87857C0.301598 4.32389 0.0643747 4.86908 0.014433 5.50584C-0.0646414 6.54213 0.189229 7.52015 0.547145 8.47321C1.27962 10.4459 2.39499 12.198 3.74758 13.8045C5.57461 15.9769 7.7554 17.6958 10.3066 18.936C11.4553 19.4937 12.6455 19.9223 13.9399 19.9931C14.8305 20.043 15.6046 19.8183 16.2247 19.1233C16.6492 18.6488 17.1278 18.216 17.5773 17.7624C18.2432 17.0881 18.2473 16.2724 17.5856 15.6065C16.7949 14.8116 16 14.0209 15.205 13.2301Z" fill="#333333"/>
<path d="M14.5112 9.91809L16.0469 9.6559C15.8055 8.24505 15.1396 6.96737 14.1283 5.95189C13.0587 4.8823 11.7061 4.20809 10.2162 4L9.99976 5.54403C11.1526 5.70634 12.2014 6.22657 13.0296 7.05477C13.812 7.83719 14.3239 8.8277 14.5112 9.91809Z" fill="#333333"/>
<path d="M16.8115 3.23789C15.0386 1.46496 12.7954 0.34543 10.3191 0L10.1027 1.54403C12.2418 1.84368 14.1812 2.81338 15.7128 4.34077C17.1653 5.79324 18.1183 7.6286 18.4637 9.64708L19.9994 9.38488C19.5957 7.04595 18.4929 4.92342 16.8115 3.23789Z" fill="#333333"/>
</svg>
